<?xml version="1.0" standalone="no"?>
<!DOCTYPE svg PUBLIC "-//W3C//DTD SVG 20010904//EN"
 "http://www.w3.org/TR/2001/REC-SVG-20010904/DTD/svg10.dtd">
<svg version="1.0" xmlns="http://www.w3.org/2000/svg"
 width="400.000000pt" height="400.000000pt" viewBox="0 0 400.000000 400.000000"
 preserveAspectRatio="xMidYMid meet">
<metadata>
Created by potrace 1.14, written by Peter Selinger 2001-2017
</metadata>
<g transform="translate(0.000000,400.000000) scale(0.100000,-0.100000)"
fill="#000000" stroke="none">
<path d="M0 2000 l0 -2000 2000 0 2000 0 0 2000 0 2000 -2000 0 -2000 0 0
-2000z m1620 950 c0 -247 3 -450 6 -450 3 0 31 8 62 18 50 15 103 17 432 17
328 0 385 -2 455 -18 278 -64 425 -241 465 -561 6 -47 10 -347 10 -713 l0
-633 -335 0 -335 0 0 573 c0 533 -2 575 -19 612 -47 104 -109 120 -406 108
-202 -8 -213 -9 -248 -33 -21 -14 -47 -45 -60 -70 -22 -45 -22 -48 -25 -622
l-3 -578 -334 0 -335 0 0 1400 0 1400 335 0 335 0 0 -450z"/>
</g>
</svg>
